<svg width="20" height="22" viewBox="0 0 20 22" fill="none" xmlns="http://www.w3.org/2000/svg">
<path d="M2.83626 11.5029C2.54386 11.8343 2.154 12 1.66667 12C1.21832 12 0.82846 11.8343 0.497077 11.5029C0.165692 11.1715 0 10.7817 0 10.3333C0 9.846 0.165692 9.45614 0.497077 9.16374L8.65497 1.00585C9.02534 0.635476 9.47368 0.450291 10 0.450291C10.5458 0.450291 10.9942 0.635476 11.345 1.00585L19.5029 9.16374C19.8343 9.45614 20 9.846 20 10.3333C20 10.7817 19.8343 11.1715 19.5029 11.5029C19.191 11.8343 18.8012 12 18.3333 12C17.8655 12 17.4756 11.8343 17.1637 11.5029L9.00585 3.34503C8.90838 3.24756 9.04483 3.17934 9.4152 3.14035C9.80507 3.10137 10.1852 3.10137 10.5556 3.14035C10.9454 3.17934 11.0916 3.24756 10.9942 3.34503L2.83626 11.5029ZM2.83626 21.5029C2.54386 21.8343 2.154 22 1.66667 22C1.21832 22 0.82846 21.8343 0.497077 21.5029C0.165692 21.1715 0 20.7817 0 20.3333C0 19.846 0.165692 19.4561 0.497077 19.1637L8.65497 11.0058C9.02534 10.6355 9.47368 10.4503 10 10.4503C10.5458 10.4503 10.9942 10.6355 11.345 11.0058L19.5029 19.1637C19.8343 19.4561 20 19.846 20 20.3333C20 20.7817 19.8343 21.1715 19.5029 21.5029C19.191 21.8343 18.8012 22 18.3333 22C17.8655 22 17.4756 21.8343 17.1637 21.5029L9.00585 13.345C8.90838 13.2476 9.04483 13.1793 9.4152 13.1404C9.80507 13.1014 10.1852 13.1014 10.5556 13.1404C10.9454 13.1793 11.0916 13.2476 10.9942 13.345L2.83626 21.5029Z" fill="#333333"/>
</svg>
