<svg width="45" height="45" viewBox="0 0 45 45" fill="none" xmlns="http://www.w3.org/2000/svg">
<path fill-rule="evenodd" clip-rule="evenodd" d="M2.8125 22.5C2.8125 27.7214 4.88671 32.729 8.57883 36.4212C12.271 40.1133 17.2786 42.1875 22.5 42.1875C27.7214 42.1875 32.729 40.1133 36.4212 36.4212C40.1133 32.729 42.1875 27.7214 42.1875 22.5C42.1875 17.2786 40.1133 12.271 36.4212 8.57883C32.729 4.88671 27.7214 2.8125 22.5 2.8125C17.2786 2.8125 12.271 4.88671 8.57883 8.57883C4.88671 12.271 2.8125 17.2786 2.8125 22.5ZM45 22.5C45 28.4674 42.6295 34.1903 38.4099 38.4099C34.1903 42.6295 28.4674 45 22.5 45C16.5326 45 10.8097 42.6295 6.5901 38.4099C2.37053 34.1903 0 28.4674 0 22.5C0 16.5326 2.37053 10.8097 6.5901 6.5901C10.8097 2.37053 16.5326 0 22.5 0C28.4674 0 34.1903 2.37053 38.4099 6.5901C42.6295 10.8097 45 16.5326 45 22.5ZM23.9062 32.3438C23.9062 32.7167 23.7581 33.0744 23.4944 33.3381C23.2306 33.6018 22.873 33.75 22.5 33.75C22.127 33.75 21.7694 33.6018 21.5056 33.3381C21.2419 33.0744 21.0938 32.7167 21.0938 32.3438V16.0509L15.0581 22.0894C14.7941 22.3534 14.4359 22.5018 14.0625 22.5018C13.6891 22.5018 13.3309 22.3534 13.0669 22.0894C12.8028 21.8253 12.6545 21.4672 12.6545 21.0938C12.6545 20.7203 12.8028 20.3622 13.0669 20.0981L21.5044 11.6606C21.635 11.5297 21.7902 11.4258 21.961 11.3549C22.1319 11.284 22.315 11.2475 22.5 11.2475C22.685 11.2475 22.8681 11.284 23.039 11.3549C23.2098 11.4258 23.365 11.5297 23.4956 11.6606L31.9331 20.0981C32.1972 20.3622 32.3455 20.7203 32.3455 21.0938C32.3455 21.4672 32.1972 21.8253 31.9331 22.0894C31.6691 22.3534 31.3109 22.5018 30.9375 22.5018C30.5641 22.5018 30.2059 22.3534 29.9419 22.0894L23.9062 16.0509V32.3438Z" fill="#352632"/>
</svg>
