<svg width="31" height="30" viewBox="0 0 31 30" fill="none" xmlns="http://www.w3.org/2000/svg">
<path d="M2.44737 14.5526C2.14912 14.2719 2 13.9211 2 13.5C2 13.0789 2.14912 12.7281 2.44737 12.4474C2.74561 12.1491 3.09649 12 3.5 12C3.9386 12 4.28947 12.1491 4.55263 12.4474L13.3947 21.2895C13.4825 21.3772 13.3509 21.4386 13 21.4737C12.6667 21.5088 12.3246 21.5088 11.9737 21.4737C11.6404 21.4386 11.5175 21.3772 11.6053 21.2895L26.4474 6.44737C26.7281 6.14912 27.0789 6 27.5 6C27.9211 6 28.2719 6.14912 28.5526 6.44737C28.8509 6.72807 29 7.07895 29 7.5C29 7.92105 28.8509 8.27193 28.5526 8.55263L13.7105 23.3947C13.3947 23.7105 12.9912 23.8684 12.5 23.8684C12.0263 23.8684 11.6228 23.7105 11.2895 23.3947L2.44737 14.5526Z" fill="#00FF0A"/>
<path d="M2.44737 14.5526L3.15448 13.8455L3.14376 13.8348L3.13273 13.8244L2.44737 14.5526ZM2.44737 12.4474L3.13273 13.1756L3.14376 13.1652L3.15447 13.1545L2.44737 12.4474ZM4.55263 12.4474L3.80279 13.109L3.82345 13.1324L3.84552 13.1545L4.55263 12.4474ZM13.3947 21.2895L14.1018 20.5824L14.1018 20.5824L13.3947 21.2895ZM13 21.4737L12.9005 20.4786L12.8953 20.4792L13 21.4737ZM11.9737 21.4737L11.869 22.4682L11.8742 22.4687L11.9737 21.4737ZM11.6053 21.2895L10.8982 20.5824L10.8982 20.5824L11.6053 21.2895ZM26.4474 6.44737L27.1545 7.15448L27.1652 7.14376L27.1756 7.13273L26.4474 6.44737ZM28.5526 6.44737L27.8244 7.13273L27.8452 7.1548L27.8673 7.17557L28.5526 6.44737ZM28.5526 8.55263L27.8673 7.82443L27.8562 7.83481L27.8455 7.84552L28.5526 8.55263ZM13.7105 23.3947L14.4176 24.1018V24.1018L13.7105 23.3947ZM11.2895 23.3947L10.5824 24.1018L10.5919 24.1114L10.6017 24.1207L11.2895 23.3947ZM3.13273 13.8244C3.04155 13.7386 3 13.6541 3 13.5H1C1 14.188 1.2567 14.8052 1.762 15.2808L3.13273 13.8244ZM3 13.5C3 13.3459 3.04155 13.2614 3.13273 13.1756L1.762 11.7192C1.2567 12.1948 1 12.812 1 13.5H3ZM3.15447 13.1545C3.27465 13.0343 3.3748 13 3.5 13V11C2.81819 11 2.21658 11.2639 1.74026 11.7403L3.15447 13.1545ZM3.5 13C3.6847 13 3.75027 13.0495 3.80279 13.109L5.30247 11.7857C4.82867 11.2488 4.19249 11 3.5 11V13ZM3.84552 13.1545L12.6876 21.9966L14.1018 20.5824L5.25974 11.7403L3.84552 13.1545ZM12.6876 21.9966C12.6158 21.9248 12.3099 21.5786 12.46 21.0682C12.583 20.65 12.9183 20.5048 12.939 20.4951C13.0438 20.4462 13.0788 20.4608 12.9005 20.4786L13.0995 22.4687C13.272 22.4515 13.5483 22.4178 13.7847 22.3075C13.8712 22.2672 14.2448 22.0879 14.3788 21.6325C14.5399 21.0848 14.2175 20.698 14.1018 20.5824L12.6876 21.9966ZM12.8953 20.4792C12.6333 20.5068 12.3597 20.5073 12.0732 20.4786L11.8742 22.4687C12.2894 22.5102 12.7001 22.5108 13.1047 22.4682L12.8953 20.4792ZM12.0784 20.4792C12.0159 20.4726 11.9823 20.4667 11.9701 20.4641C11.9472 20.4592 11.9986 20.4668 12.0788 20.5069C12.1155 20.5252 12.4506 20.6889 12.5524 21.1213C12.6676 21.611 12.3778 21.9312 12.3124 21.9966L10.8982 20.5824C10.7889 20.6916 10.4815 21.0524 10.6055 21.5794C10.716 22.0491 11.0863 22.2467 11.1844 22.2957C11.4256 22.4164 11.7065 22.4511 11.869 22.4682L12.0784 20.4792ZM12.3124 21.9966L27.1545 7.15448L25.7403 5.74026L10.8982 20.5824L12.3124 21.9966ZM27.1756 7.13273C27.2614 7.04155 27.3459 7 27.5 7V5C26.812 5 26.1948 5.2567 25.7192 5.76201L27.1756 7.13273ZM27.5 7C27.6541 7 27.7386 7.04155 27.8244 7.13273L29.2808 5.76201C28.8052 5.25669 28.188 5 27.5 5V7ZM27.8673 7.17557C27.9584 7.26139 28 7.34594 28 7.5H30C30 6.81196 29.7433 6.19475 29.238 5.71917L27.8673 7.17557ZM28 7.5C28 7.65406 27.9585 7.73861 27.8673 7.82443L29.238 9.28083C29.7433 8.80525 30 8.18804 30 7.5H28ZM27.8455 7.84552L13.0034 22.6876L14.4176 24.1018L29.2597 9.25974L27.8455 7.84552ZM13.0034 22.6876C12.8948 22.7962 12.7551 22.8684 12.5 22.8684V24.8684C13.2273 24.8684 13.8947 24.6248 14.4176 24.1018L13.0034 22.6876ZM12.5 22.8684C12.2732 22.8684 12.1184 22.8025 11.9772 22.6688L10.6017 24.1207C11.1272 24.6185 11.7794 24.8684 12.5 24.8684V22.8684ZM11.9966 22.6876L3.15448 13.8455L1.74026 15.2597L10.5824 24.1018L11.9966 22.6876Z" fill="black"/>
</svg>
