<svg width="64" height="64" viewBox="0 0 64 64" fill="none" xmlns="http://www.w3.org/2000/svg">
<path d="M11.462 15.2047C10.9318 14.7057 10.6667 14.0819 10.6667 13.3333C10.6667 12.5848 10.9318 11.961 11.462 11.462C11.9922 10.9318 12.616 10.6667 13.3333 10.6667C14.1131 10.6667 14.7368 10.9318 15.2047 11.462L52.538 48.7953C53.0682 49.2632 53.3333 49.8869 53.3333 50.6667C53.3333 51.384 53.0682 52.0078 52.538 52.538C52.039 53.0682 51.4152 53.3333 50.6667 53.3333C49.9181 53.3333 49.2943 53.0682 48.7953 52.538L11.462 15.2047ZM48.7953 11.462C49.2943 10.9318 49.9181 10.6667 50.6667 10.6667C51.4152 10.6667 52.039 10.9318 52.538 11.462C53.0682 11.961 53.3333 12.5848 53.3333 13.3333C53.3333 14.0819 53.0682 14.7057 52.538 15.2047L15.2047 52.538C14.7368 53.0682 14.1131 53.3333 13.3333 53.3333C12.616 53.3333 11.9922 53.0682 11.462 52.538C10.9318 52.0078 10.6667 51.384 10.6667 50.6667C10.6667 49.8869 10.9318 49.2632 11.462 48.7953L48.7953 11.462Z" fill="#F7F2F4"/>
</svg>
