<svg width="14" height="9" viewBox="0 0 14 9" fill="none" xmlns="http://www.w3.org/2000/svg">
<path d="M12.0146 0.847954C12.2329 0.615985 12.5058 0.5 12.8333 0.5C13.1608 0.5 13.4337 0.615985 13.652 0.847954C13.884 1.06628 14 1.33918 14 1.66667C14 1.99415 13.884 2.26706 13.652 2.48538L7.94152 8.19591C7.69591 8.44152 7.38207 8.56433 7 8.56433C6.63158 8.56433 6.31774 8.44152 6.05848 8.19591L0.347954 2.48538C0.115985 2.26706 0 1.99415 0 1.66667C0 1.33918 0.115985 1.06628 0.347954 0.847954C0.579922 0.615985 0.852826 0.5 1.16667 0.5C1.5078 0.5 1.7807 0.615985 1.98538 0.847954L7.69591 6.55848C7.76413 6.62671 7.66179 6.67446 7.38889 6.70175C7.12963 6.72904 6.86355 6.72904 6.59064 6.70175C6.33138 6.67446 6.23587 6.62671 6.30409 6.55848L12.0146 0.847954Z" fill="#333333"/>
</svg>
