<svg width="22" height="18" viewBox="0 0 22 18" fill="none" xmlns="http://www.w3.org/2000/svg">
<path fill-rule="evenodd" clip-rule="evenodd" d="M12.6919 4.9375H1C0.482233 4.9375 0.0625 4.51777 0.0625 4C0.0625 3.48223 0.482233 3.0625 1 3.0625H12.6919C13.1 1.61968 14.4265 0.5625 16 0.5625C17.5735 0.5625 18.9 1.61968 19.3081 3.0625H21C21.5178 3.0625 21.9375 3.48223 21.9375 4C21.9375 4.51777 21.5178 4.9375 21 4.9375H19.3081C18.9 6.38032 17.5735 7.4375 16 7.4375C14.4265 7.4375 13.1 6.38032 12.6919 4.9375ZM14.4375 4C14.4375 3.13706 15.1371 2.4375 16 2.4375C16.8629 2.4375 17.5625 3.13706 17.5625 4C17.5625 4.86295 16.8629 5.5625 16 5.5625C15.1371 5.5625 14.4375 4.86295 14.4375 4Z" fill="black"/>
<path fill-rule="evenodd" clip-rule="evenodd" d="M9.3081 14.9375H21C21.5178 14.9375 21.9375 14.5178 21.9375 14C21.9375 13.4822 21.5178 13.0625 21 13.0625H9.3081C8.90002 11.6197 7.57347 10.5625 6 10.5625C4.42653 10.5625 3.09998 11.6197 2.6919 13.0625H1C0.482234 13.0625 0.0625 13.4822 0.0625 14C0.0625 14.5178 0.482234 14.9375 1 14.9375H2.6919C3.09998 16.3803 4.42653 17.4375 6 17.4375C7.57347 17.4375 8.90002 16.3803 9.3081 14.9375ZM4.4375 14C4.4375 13.1371 5.13706 12.4375 6 12.4375C6.86295 12.4375 7.5625 13.1371 7.5625 14C7.5625 14.8629 6.86295 15.5625 6 15.5625C5.13706 15.5625 4.4375 14.8629 4.4375 14Z" fill="black"/>
</svg>
