<svg width="55" height="55" viewBox="0 0 55 55" fill="none" xmlns="http://www.w3.org/2000/svg">
<path d="M34.375 2.57812H1.71875V35.2344H20.625V53.2812H53.2812V20.625H34.375V2.57812ZM15.9312 10.3125L10.5373 25.7061H14.1797L15.0569 23.2031H20.625V31.7969H5.15625V6.01562H30.9375V20.625H23.7759L20.1631 10.3125H15.9312ZM19.8324 19.7656H16.2613L18.0469 14.6697L19.8324 19.7656ZM49.8438 24.0625V49.8438H24.0625V24.0625H49.8438Z" fill="#352632"/>
<path d="M34.0991 39.5828C34.4279 40.1108 34.7899 40.6175 35.1829 41.0996C33.9368 41.7716 32.5217 42.1082 30.9375 42.1094V45.5469C33.5308 45.5469 35.8478 44.8585 37.8125 43.5248C39.7772 44.8585 42.0942 45.5469 44.6875 45.5469V42.1094C43.1066 42.1094 41.6915 41.7725 40.4422 41.0989C40.8352 40.617 41.1971 40.1106 41.5259 39.5828C42.5166 37.9721 43.2452 36.2143 43.6844 34.375H45.5469V30.9375H39.5312V28.3594H36.0938V30.9375H30.0781V34.375H31.9406C32.3798 36.2143 33.1084 37.9721 34.0991 39.5828ZM40.1253 34.375C39.7697 35.5647 39.2605 36.7029 38.6106 37.7609C38.3678 38.1511 38.1013 38.5259 37.8125 38.8833C37.5447 38.5522 37.2962 38.2061 37.0681 37.8466C36.3918 36.765 35.8641 35.5973 35.4993 34.375H40.1253Z" fill="#352632"/>
</svg>
