<svg width="39" height="50" viewBox="0 0 39 50" fill="none" xmlns="http://www.w3.org/2000/svg">
<path d="M1 44.9382V4.22C1 3.08102 1 2.51153 1.22517 2.07805C1.41492 1.71276 1.71276 1.41492 2.07805 1.22517C2.51153 1 3.08102 1 4.22 1H34.78C35.919 1 36.4885 1 36.9219 1.22517C37.2872 1.41492 37.5851 1.71276 37.7748 2.07805C38 2.51153 38 3.08102 38 4.22V44.9382C38 46.9263 38 47.9203 37.5796 48.4617C37.2291 48.913 36.7023 49.1928 36.1321 49.2305C35.4482 49.2758 34.6246 48.7193 32.9773 47.6063L21.3027 39.7181C20.6449 39.2736 20.316 39.0514 19.9593 38.9672C19.6573 38.8959 19.3427 38.8959 19.0407 38.9672C18.684 39.0514 18.3551 39.2736 17.6973 39.7181L6.02274 47.6063C4.37544 48.7193 3.55179 49.2758 2.86787 49.2305C2.2977 49.1928 1.77091 48.913 1.42042 48.4617C1 47.9203 1 46.9263 1 44.9382Z" fill="#FFD400" stroke="#4D4D4D"/>
</svg>
