<svg width="18" height="18" viewBox="0 0 18 18" fill="none" xmlns="http://www.w3.org/2000/svg">
<path d="M17 8C17.2807 8 17.5146 8.09941 17.7018 8.29825C17.9006 8.48538 18 8.7193 18 9C18 9.26901 17.9006 9.50292 17.7018 9.70175C17.5146 9.90058 17.2807 10 17 10H8V1C8 0.719298 8.09942 0.48538 8.29825 0.298246C8.49708 0.0994153 8.73099 0 9 0C9.2807 0 9.51462 0.0994153 9.70175 0.298246C9.90059 0.48538 10 0.719298 10 1V8H17ZM1 10C0.730994 10 0.497076 9.90058 0.298246 9.70175C0.0994152 9.50292 0 9.26901 0 9C0 8.7193 0.0994152 8.48538 0.298246 8.29825C0.497076 8.09941 0.730994 8 1 8H10V17C10 17.269 9.90059 17.5029 9.70175 17.7018C9.51462 17.9006 9.2807 18 9 18C8.73099 18 8.49708 17.9006 8.29825 17.7018C8.09942 17.5029 8 17.269 8 17V10H1Z" fill="#333333"/>
</svg>
