<svg width="30" height="30" viewBox="0 0 30 30" fill="none" xmlns="http://www.w3.org/2000/svg">
<path fill-rule="evenodd" clip-rule="evenodd" d="M18.9752 20.7429C14.558 24.2807 8.09233 24.0022 3.99769 19.9076C-0.395713 15.5142 -0.395713 8.39107 3.99769 3.99767C8.39108 -0.395728 15.5142 -0.395728 19.9076 3.99767C24.0022 8.09231 24.2807 14.558 20.7429 18.9751L29.3357 27.5679C29.8238 28.056 29.8238 28.8475 29.3357 29.3356C28.8475 29.8238 28.056 29.8238 27.5679 29.3356L18.9752 20.7429ZM5.76545 18.1398C2.34836 14.7227 2.34836 9.18252 5.76545 5.76544C9.18254 2.34835 14.7227 2.34835 18.1398 5.76544C21.5544 9.18002 21.5569 14.7146 18.1473 18.1323C18.1448 18.1348 18.1423 18.1373 18.1398 18.1398C18.1373 18.1423 18.1348 18.1448 18.1323 18.1473C14.7146 21.5569 9.18004 21.5544 5.76545 18.1398Z" fill="black"/>
</svg>
