<svg width="22" height="17" viewBox="0 0 22 17" fill="none" xmlns="http://www.w3.org/2000/svg">
<path d="M19.8698 7.462C20.3438 8.082 20.3438 8.919 19.8698 9.538C18.3768 11.487 14.7948 15.5 10.6128 15.5C6.4308 15.5 2.8488 11.487 1.3558 9.538C1.12519 9.24113 1 8.87592 1 8.5C1 8.12408 1.12519 7.75887 1.3558 7.462C2.8488 5.513 6.4308 1.5 10.6128 1.5C14.7948 1.5 18.3768 5.513 19.8698 7.462V7.462Z" stroke="#352632" stroke-opacity="0.7" stroke-width="2" stroke-linecap="round" stroke-linejoin="round"/>
<path d="M10.6128 11.5C12.2696 11.5 13.6128 10.1569 13.6128 8.5C13.6128 6.84315 12.2696 5.5 10.6128 5.5C8.95594 5.5 7.61279 6.84315 7.61279 8.5C7.61279 10.1569 8.95594 11.5 10.6128 11.5Z" stroke="#352632" stroke-opacity="0.7" stroke-width="2" stroke-linecap="round" stroke-linejoin="round"/>
</svg>
